# xmcd
#
# Track frame offsets:
#	150
#	20810
#	37428
#	54144
#	69283
#	89052
#	107034
#	119372
#	134400
#	153489
#	177368
#	190456
#	209306
#
# Disc length: 3012 seconds
#
# Revision: 0
# Processed by: cddbd v1.5.2PL0 Copyright (c) Steve Scherf et al.
# Submitted via: audiograbber 1.80
#
DISCID=c20bc20d
DTITLE=Angelique Kidjo - Oyaya!
DYEAR=1900
DGENRE=
TTITLE0=Seyin Djro 
TTITLE1=Congoleo 
TTITLE2=Bala Bala
TTITLE3=Oulala 
TTITLE4=N'Yin Wan Nou We 
TTITLE5=Conga Habanera 
TTITLE6=Le Monde Comme Un Bébé (with Henri Salvador) 
TTITLE7=Mutoto Kwanza 
TTITLE8=Adje Dada 
TTITLE9=Djovamin Yi 
TTITLE10=Dje Dje L'Aye 
TTITLE11=Macumba 
TTITLE12=Bissimilai 
EXTD=
EXTT0=
EXTT1=
EXTT2=
EXTT3=
EXTT4=
EXTT5=
EXTT6=
EXTT7=
EXTT8=
EXTT9=
EXTT10=
EXTT11=
EXTT12=
PLAYORDER=
